# xmcd
#
# Track frame offsets: 
#        150
#        12757
#        26039
#        37834
#        50126
#        66240
#        81568
#        93505
#        109430
#        122932
#        134497
#        151514
#        164970
#        178928
#        191793
#        205534
#        220537
#        232923
#        244082
#
# Disc length: 3440 seconds
#
# Revision: 2
# Processed by: cddbd v1.5.2PL0 Copyright (c) Steve Scherf et al.
# Submitted via: ExactAudioCopyFreeDBPlugin 1.0
#
DISCID=110d6e13
DTITLE=Various Artist - Holland Dozier Holland:  The Complete 45s Col
DTITLE=lection (Invictus, Hot Wax, Music Merchant), 1969-1977 [Harmles
DTITLE=s box set]
DYEAR=2014
DGENRE=Soul
TTITLE0=Glass House - Bad Bill of Goods
TTITLE1=New Play - A Gift of Me (ft Ruth Copeland)
TTITLE2=Freda Payne - The Easiest Way to Fall
TTITLE3=The Chairmen of the Board - Since the Days of Pigtails (And Fa
TTITLE3=iry Tales)
TTITLE4=Glass House - He's in My Life
TTITLE5=Parliament - I Call My Baby Pussycat (as "A Parliament Thang")
TTITLE6=The Chairmen of the Board - I'll Come Crawling
TTITLE7=The Chairmen of the Board - Patches
TTITLE8=The Chairmen of the Board - Bless You
TTITLE9=Glass House - Stealing Moments (From Another Woman's Life)
TTITLE10=The Barrino Brothers - When Love Was a Child
TTITLE11=Freda Payne - The World Don't Owe You a Thing
TTITLE12=The Chairmen of the Board - When Will She Tell Me She Needs M
TTITLE12=e
TTITLE13=The 8th Day - I Can't Fool Myself
TTITLE14=Ruth Copeland - No Commitment
TTITLE15=The Chairmen of the Board - Tricked and Trapped (By a Tricky Tr
TTITLE15=apper)
TTITLE16=Freda Payne - I Shall Not Be Moved
TTITLE17=General Johnson - Savannah Lady
TTITLE18=Lucifer - What I Am
EXTD=
EXTT0=
EXTT1=
EXTT2=
EXTT3=
EXTT4=
EXTT5=
EXTT6=
EXTT7=
EXTT8=
EXTT9=
EXTT10=
EXTT11=
EXTT12=
EXTT13=
EXTT14=
EXTT15=
EXTT16=
EXTT17=
EXTT18=
PLAYORDER=
